{"title":"The.Company.You.Keep.2012 BRRip XViD juggs","uid":8393801,"size":743368375,"categoryP":"video","categoryS":"movies","magnet":"?xt=urn:btih:6a041945f19c3aca8b979ec7a28aa8b990aa36ed&amp;dn=The.Company.You.Keep.2012+BRRip+XViD+juggs&amp;tr=udp%3A%2F%2Ftracker.openbittorrent.com%3A80&amp;tr=udp%3A%2F%2Fopen.demonii.com%3A1337&amp;tr=udp%3A%2F%2Ftracker.coppersurfer.tk%3A6969&amp;tr=udp%3A%2F%2Fexodus.desync.com%3A6969","seeders":2,"leechers":0,"uploader":"juggs99","files":3,"time":1366507714,"description":"Source : pHD (Thanks)\n &lt;a href=&quot;\nhttp://www.imdb.com/title/tt1381404/&quot; rel=&quot;nofollow&quot; target=&quot;_NEW&quot;&gt;\nhttp://www.imdb.com/title/tt1381404/&lt;/a&gt;\n\n\nFormat                                   : AVI\nFormat/Info                              : Audio Video Interleave\nFile size                                : 697 MiB\nDuration                                 : 2h 4mn\nOverall bit rate                         : 781 Kbps\nWriting library                          : VirtualDub build 32842/release\n\nVideo\nID                                       : 0\nFormat                                   : MPEG-4 Visual\nFormat profile                           : Advanced Simple@L5\nFormat settings, BVOP                    : 2\nFormat settings, QPel                    : No\nFormat settings, GMC                     : No warppoints\nFormat settings, Matrix                  : Default (H.263)\nMuxing mode                              : Packed bitstream\nCodec ID                                 : XVID\nCodec ID/Hint                            : XviD\nDuration                                 : 2h 4mn\nBit rate                                 : 663 Kbps\nWidth                                    : 640 pixels\nHeight                                   : 272 pixels\nDisplay aspect ratio                     : 2.35:1\nFrame rate                               : 24.000 fps\nColor space                              : YUV\nChroma subsampling                       : 4:2:0\nBit depth                                : 8 bits\nScan type                                : Progressive\nCompression mode                         : Lossy\nBits/(Pixel*Frame)                       : 0.159\nStream size                              : 592 MiB (85%)\nWriting library                          : XviD 64\n\nAudio\nID                                       : 1\nFormat                                   : MPEG Audio\nFormat version                           : Version 1\nFormat profile                           : Layer 3\nMode                                     : Joint stereo\nMode extension                           : MS Stereo\nCodec ID                                 : 55\nCodec ID/Hint                            : MP3\nDuration                                 : 2h 1mn\nBit rate mode                            : Constant\nBit rate                                 : 112 Kbps\nChannel(s)                               : 2 channels\nSampling rate                            : 44.1 KHz\nCompression mode                         : Lossy\nStream size                              : 97.4 MiB (14%)\nAlignment                                : Split accross interleaves\nInterleave, duration                     : 43 ms (1.03 video frame)\nInterleave, preload duration             : 500 ms\n\n &lt;a href=&quot;\nhttp://www.shotpix.com/images/58222397014398272415.png&quot; rel=&quot;nofollow&quot; target=&quot;_NEW&quot;&gt;\nhttp://www.shotpix.com/images/58222397014398272415.png&lt;/a&gt; &lt;a href=&quot;\nhttp://www.shotpix.com/images/13188556045833476231.png&quot; rel=&quot;nofollow&quot; target=&quot;_NEW&quot;&gt;\nhttp://www.shotpix.com/images/13188556045833476231.png&lt;/a&gt; &lt;a href=&quot;\nhttp://www.shotpix.com/images/40237652866103889524.png&quot; rel=&quot;nofollow&quot; target=&quot;_NEW&quot;&gt;\nhttp://www.shotpix.com/images/40237652866103889524.png&lt;/a&gt;","torrent":{"xt":"urn:btih:6a041945f19c3aca8b979ec7a28aa8b990aa36ed","amp;dn":"The.Company.You.Keep.2012+BRRip+XViD+juggs","amp;tr":["udp%3A%2F%2Ftracker.openbittorrent.com%3A80","udp%3A%2F%2Fopen.demonii.com%3A1337","udp%3A%2F%2Ftracker.coppersurfer.tk%3A6969","udp%3A%2F%2Fexodus.desync.com%3A6969"],"infoHash":"6a041945f19c3aca8b979ec7a28aa8b990aa36ed","infoHashBuffer":{"type":"Buffer","data":[106,4,25,69,241,156,58,202,139,151,158,199,162,138,168,185,144,170,54,237]},"announce":[],"urlList":[]}}